<svg xmlns="http://www.w3.org/2000/svg" width="100" height="94" viewBox="0 0 100 94">
  <g id="favicon" transform="translate(-284 322)">
    <rect id="Rectangle_43" data-name="Rectangle 43" width="100" height="94" rx="20" transform="translate(284 -322)" fill="#fff"/>
    <g id="Ibrahim-Abdelnaby-logo" transform="translate(-88.803 -659.441)">
      <path id="Path_1" data-name="Path 1" d="M426.851,450.417H453.62L431.875,418.51c-3.991,5.734-17.5,25.071-18.4,25.942a3,3,0,0,1-3.831.367,2.8,2.8,0,0,1-.527-3.808c.046-.069,15.987-22.341,19.5-27.25L422.654,405,391,450.417h29.039c5.253-7.5,11.469-16.309,12.065-16.905a3,3,0,0,1,3.831-.367,2.82,2.82,0,0,1,.528,3.808C436.439,437,431.714,443.6,426.851,450.417Z" transform="translate(0 -37.761)"/>
      <path id="Path_2" data-name="Path 2" d="M551.928,364.946,545.734,356,540,364.258l5.734,8.487Z" transform="translate(-114.823)"/>
    </g>
  </g>
</svg>
