<svg xmlns="http://www.w3.org/2000/svg" width="55.013" height="49.774" viewBox="0 0 55.013 49.774">
  <g id="Ibrahim-Abdelnaby-logo" transform="translate(-391 -356)">
    <path id="Path_1" data-name="Path 1" d="M422.5,444.9h23.517l-19.1-28.03c-3.506,5.038-15.375,22.025-16.161,22.791a2.635,2.635,0,0,1-3.365.322,2.457,2.457,0,0,1-.463-3.345c.04-.06,14.045-19.627,17.129-23.94l-5.239-7.7L391,444.9h25.512c4.615-6.59,10.076-14.328,10.6-14.852a2.635,2.635,0,0,1,3.365-.322,2.477,2.477,0,0,1,.464,3.345C430.92,433.111,426.769,438.915,422.5,444.9Z" transform="translate(0 -39.126)" fill="#fff"/>
    <path id="Path_2" data-name="Path 2" d="M550.479,363.859,545.038,356,540,363.254l5.038,7.456Z" transform="translate(-118.975)" fill="#fff"/>
  </g>
</svg>
