<svg xmlns="http://www.w3.org/2000/svg" width="50" height="50" viewBox="0 0 50 50">
  <g id="javascript" transform="translate(-1348 -1641)">
    <path id="javascript-2" data-name="javascript" d="M32,32V82H82V32ZM58.786,70.839c0,4.867-2.875,7.24-7.037,7.24a7.292,7.292,0,0,1-7.048-4.3h0l3.826-2.316c.738,1.309,1.3,2.416,2.908,2.416,1.339,0,2.44-.6,2.44-2.953V55.214h4.911Zm11.088,7.128c-4.363,0-7.182-1.969-8.558-4.687h0l3.831-2.218A5.018,5.018,0,0,0,69.779,73.8c1.946,0,3.077-.862,3.077-2.2,0-1.61-1.164-2.181-3.312-3.125l-1.174-.5c-3.391-1.442-5.638-3.254-5.638-7.081,0-3.523,2.684-6.1,6.879-6.1,2.988,0,5.134.929,6.68,3.647l-3.665,2.356a3.191,3.191,0,0,0-3.02-2.009,2.044,2.044,0,0,0-2.249,2.009c0,1.41.873,1.98,2.886,2.853l1.174.5c3.994,1.712,6.243,3.46,6.243,7.384C77.661,75.765,74.338,77.968,69.874,77.968Z" transform="translate(1316 1609)" fill="#f0fa71"/>
  </g>
</svg>
