<svg xmlns="http://www.w3.org/2000/svg" width="55.797" height="49.823" viewBox="0 0 55.797 49.823">
  <g id="react" transform="translate(-16.415 -2.631)">
    <circle id="Ellipse_2" data-name="Ellipse 2" cx="5.097" cy="5.097" r="5.097" transform="translate(39.216 22.418)" fill="#61dafb"/>
    <path id="Path_28" data-name="Path 28" d="M44.313,46.261c4,3.892,7.948,6.194,11.127,6.194a5.507,5.507,0,0,0,2.85-.713c2.85-1.644,3.892-5.755,2.9-11.62-.164-1.041-.384-2.083-.658-3.179,1.1-.329,2.083-.658,3.069-.987,5.536-2.138,8.605-5.1,8.605-8.331,0-3.289-3.069-6.248-8.605-8.331a25.144,25.144,0,0,0-3.069-.987c.274-1.1.493-2.138.658-3.179.932-5.974-.11-10.14-2.96-11.784a5.507,5.507,0,0,0-2.85-.713c-3.124,0-7.125,2.3-11.127,6.194-3.946-3.892-7.893-6.194-11.072-6.194a5.507,5.507,0,0,0-2.85.713c-2.85,1.644-3.892,5.755-2.9,11.62.164,1.041.384,2.083.658,3.179-1.1.329-2.083.658-3.069.987-5.536,2.138-8.605,5.1-8.605,8.331,0,3.289,3.069,6.248,8.605,8.331a25.143,25.143,0,0,0,3.069.987c-.274,1.1-.493,2.138-.658,3.179-.932,5.865.11,10.03,2.9,11.62a5.507,5.507,0,0,0,2.85.713C36.366,52.4,40.312,50.1,44.313,46.261Zm-3.069-7.4c.987.055,2.028.055,3.069.055s2.083,0,3.069-.055c-.987,1.315-2.028,2.521-3.069,3.672C43.272,41.382,42.231,40.177,41.244,38.861Zm-6.8-5.645c.548.932,1.041,1.809,1.644,2.686-1.7-.219-3.289-.493-4.823-.822.493-1.48,1.041-3.015,1.7-4.549C33.406,31.407,33.9,32.339,34.448,33.216ZM31.269,20.006c1.535-.329,3.124-.6,4.823-.822-.548.877-1.1,1.754-1.644,2.686s-1.041,1.809-1.48,2.741A36.641,36.641,0,0,1,31.269,20.006Zm3.015,7.509c.713-1.48,1.48-2.96,2.357-4.44.822-1.425,1.754-2.85,2.686-4.275,1.644-.11,3.289-.164,4.988-.164,1.754,0,3.4.055,4.988.164.987,1.425,1.864,2.85,2.686,4.275.877,1.48,1.644,2.96,2.357,4.44-.713,1.48-1.48,2.96-2.357,4.44-.822,1.425-1.754,2.85-2.686,4.275-1.644.11-3.289.164-4.988.164-1.754,0-3.4-.055-4.988-.164-.987-1.425-1.864-2.85-2.686-4.275C35.763,30.475,35,29,34.283,27.515Zm21.431-2.96-1.48-2.741c-.548-.932-1.041-1.809-1.644-2.686,1.7.219,3.289.493,4.823.822C56.92,21.486,56.372,23.021,55.714,24.556Zm0,5.92c.658,1.535,1.206,3.069,1.7,4.549-1.535.329-3.124.6-4.823.822.548-.877,1.1-1.754,1.644-2.686C54.727,32.339,55.221,31.407,55.714,30.475Zm1.261,19.019a2.974,2.974,0,0,1-1.589.384c-2.686,0-6.029-2.192-9.318-5.481a57.385,57.385,0,0,0,4.659-5.755,50.2,50.2,0,0,0,7.345-1.151,28.331,28.331,0,0,1,.6,2.96C59.441,45.11,58.838,48.453,56.975,49.494Zm2.85-28.885c6.139,1.754,9.811,4.44,9.811,6.906,0,2.138-2.521,4.275-6.961,5.974-.877.329-1.864.658-2.85.932a57.607,57.607,0,0,0-2.686-6.906A49.644,49.644,0,0,0,59.825,20.609ZM55.44,5.153a3.1,3.1,0,0,1,1.59.384c1.809,1.041,2.466,4.33,1.7,9.044-.164.932-.384,1.918-.6,2.96a71.13,71.13,0,0,0-7.345-1.151,50.641,50.641,0,0,0-4.659-5.755C49.411,7.4,52.754,5.153,55.44,5.153ZM47.383,16.17c-.987-.055-2.028-.055-3.069-.055s-2.083,0-3.069.055c.987-1.315,2.028-2.521,3.069-3.672C45.355,13.648,46.4,14.909,47.383,16.17ZM31.652,5.536a2.974,2.974,0,0,1,1.59-.384c2.686,0,6.029,2.192,9.318,5.481A57.386,57.386,0,0,0,37.9,16.389a50.2,50.2,0,0,0-7.345,1.151,28.333,28.333,0,0,1-.6-2.96C29.186,9.921,29.789,6.633,31.652,5.536ZM28.8,34.421c-6.139-1.754-9.811-4.44-9.811-6.906,0-2.138,2.521-4.275,6.961-5.974.877-.329,1.864-.658,2.85-.932a57.607,57.607,0,0,0,2.686,6.906A52.445,52.445,0,0,0,28.8,34.421Zm1.151,6.029c.164-.932.384-1.918.6-2.96A71.13,71.13,0,0,0,37.9,38.642,50.641,50.641,0,0,0,42.56,44.4c-3.289,3.234-6.632,5.481-9.318,5.481a3.1,3.1,0,0,1-1.59-.384C29.789,48.453,29.186,45.11,29.953,40.451Z" fill="#61dafb"/>
  </g>
</svg>
