<svg xmlns="http://www.w3.org/2000/svg" width="169.617" height="23.311" viewBox="0 0 169.617 23.311">
  <g id="ibrahim_logo" transform="translate(-140 -72.066)">
    <path id="M" d="M189.2,46.394V23.149h.051l12.93,17.581-1.95-.443L213.11,23.1h.051V46.345H208.6v-13.3l.308,2.265-7.85,10.736H201L192.893,35.31l.77-2.118V46.345H189.2Z" transform="translate(78.673 48.977)" fill="#fff"/>
    <path id="I" d="M173.7,25h4.566V48.294H173.7Z" transform="translate(82.066 47.077)" fill="#fff"/>
    <path id="H" d="M148.548,25V48.294h-4.566V38.8H133.566v9.441H129V25h4.566v9.389h10.416V25Z" transform="translate(99.677 47.077)" fill="#fff"/>
    <path id="A" d="M87.4,46.594,97.918,23.3h.257l10.518,23.294h-5.336l-6.722-16.42L99.97,28,91.915,46.6Z" transform="translate(113.342 48.777)" fill="#fff"/>
    <path id="R" d="M59.978,25a11.335,11.335,0,0,1,4.977.975,7.245,7.245,0,0,1,3.078,2.719A7.835,7.835,0,0,1,69.11,32.85a10.725,10.725,0,0,1-.41,2.822,9.187,9.187,0,0,1-1.385,2.617,7.61,7.61,0,0,1-2.565,1.9,9.8,9.8,0,0,1-3.9.718H57.566v7.388H53V25Zm.77,11.442a3.712,3.712,0,0,0,2.155-.564,3.406,3.406,0,0,0,1.077-1.385A4.066,4.066,0,0,0,64.288,33a9.044,9.044,0,0,0-.1-.975,2.831,2.831,0,0,0-.462-1.18,2.975,2.975,0,0,0-1.077-1.026,4.006,4.006,0,0,0-1.9-.41H57.464v7.029Zm4.31,2.873L70.8,48.294H65.468l-5.9-8.876Z" transform="translate(122.502 47.077)" fill="#fff"/>
    <path id="B" d="M22.324,25a10.213,10.213,0,0,1,5.8,1.488,4.963,4.963,0,0,1,2.155,4.361A5.852,5.852,0,0,1,29.2,34.441,6.118,6.118,0,0,1,26.326,36.6a11.761,11.761,0,0,1-4.156.718l-.718-2.463a15.86,15.86,0,0,1,5.131.77,8.274,8.274,0,0,1,3.54,2.258,5.1,5.1,0,0,1,1.283,3.54,6.994,6.994,0,0,1-.667,3.232,5.664,5.664,0,0,1-1.847,2.1,8.687,8.687,0,0,1-2.617,1.18,11.654,11.654,0,0,1-3.027.359H15.5V25Zm.564,9.543a2.294,2.294,0,0,0,2-.821,3.132,3.132,0,0,0,.667-1.847,2.024,2.024,0,0,0-.821-1.8,3.467,3.467,0,0,0-2.155-.616H20.118v5.079Zm.154,9.492a5,5,0,0,0,2.565-.616,2.43,2.43,0,0,0,.462-3.54,3.114,3.114,0,0,0-1.488-.718,7.694,7.694,0,0,0-1.9-.2H20.066V44.04h2.976Z" transform="translate(136.607 47.077)" fill="#fff"/>
    <path id="I-2" data-name="I" d="M0,25H4.566V48.294H0Z" transform="translate(140 47.077)" fill="#fff"/>
    <g id="trademark" transform="translate(299.596 72.22)">
      <path id="T" d="M243.1,24.971v5.065h-.771V24.971H240.9V24.2h3.524v.771Z" transform="translate(-240.9 -24.09)" fill="#fff"/>
      <path id="M-2" data-name="M" d="M249.645,29.936V25.421l-1.762,2.533h-.551l-1.762-2.533v4.515h-.77V24.1h.881l1.982,2.753,1.982-2.753h.881v5.836Z" transform="translate(-240.505 -24.1)" fill="#fff"/>
    </g>
  </g>
</svg>
